<svg viewBox="0 0 60 60" fill="none" xmlns="http://www.w3.org/2000/svg"
    class="h-[24px] w-auto text-neutral-700 dark:text-white">
    <g transform="translate(9,6)">
        <path d="M8.31552 21.5999V31.2017L4.1582 33.5989V19.1995L8.31552 21.5999Z" fill="#FBA219"></path>
        <path
            d="M41.5718 11.9998V35.9994L37.4144 38.3999L37.4128 19.1995L33.2571 21.5983V40.8003L20.7852 47.9984V24.0004L24.9425 21.5999V40.8003L29.0998 38.3999V19.1995L41.5718 11.9998Z"
            fill="#FBA219"></path>
        <path d="M12.4718 9.5979L8.31445 11.9984L12.4718 14.3988V9.5979Z" fill="#FBA219"></path>
        <path d="M20.7843 4.7998L16.627 7.20026L20.7843 9.59909V4.7998Z" fill="#FBA219"></path>
        <path
            d="M41.5716 12.0006L37.4143 14.3995L20.785 4.79928L16.6277 7.19974V7.20136L20.785 9.59857L33.2569 16.7999L29.1012 19.2004H29.0996V19.1988L12.472 9.59857L8.31464 11.999L24.9423 21.6008L20.785 24.0013L0 11.999L20.7833 0H20.785L41.5716 12.0006Z"
            fill="currentColor"></path>
        <path d="M16.6285 36.0008V40.8017L4.1582 33.6003L8.31552 31.2031L16.6285 36.0008Z" fill="currentColor"></path>
        <path d="M24.9414 40.8019L29.0987 38.4014L24.9414 36.001V40.8019Z" fill="currentColor"></path>
        <path
            d="M0 11.9998V36.001L20.785 48.0001V23.9988L0 11.9998ZM16.6277 40.802L4.15569 33.6006V19.2011L16.6277 26.4025V40.802Z"
            fill="#F8691A"></path>
        <path d="M37.4151 38.3998L33.2578 35.9994V21.5983L37.4135 19.1995L37.4151 38.3998Z" fill="#F8691A"></path>
        <path d="M37.4144 14.4L33.2571 16.8005L20.7852 9.59909V4.7998L37.4144 14.4Z" fill="#F8691A"></path>
        <path d="M12.4727 9.5979V14.3988L24.943 21.6002V35.9996L29.1003 38.4001V19.1997L12.4727 9.5979Z" fill="#F8691A">
        </path>
    </g>
</svg>